<?xml version="1.0" encoding="UTF-8"?>
<svg width="39px" height="45px" viewBox="0 0 39 45" version="1.1" xmlns="http://www.w3.org/2000/svg" xmlns:xlink="http://www.w3.org/1999/xlink">
    <!-- Generator: Sketch 50.2 (55047) - http://www.bohemiancoding.com/sketch -->
    <title>android-logo</title>
    <desc>Created with Sketch.</desc>
    <defs></defs>
    <g id="Page-1" stroke="none" stroke-width="1" fill="none" fill-rule="evenodd">
        <g id="android-logo" fill="#FFFFFF" fill-rule="nonzero">
            <path d="M2.80502964,14.6485672 L2.68995059,14.6485672 C1.2147332,14.6485672 0.011916996,15.8552075 0.011916996,17.3266008 L0.011916996,28.9863142 C0.011916996,30.4634881 1.2147332,31.6662154 2.68995059,31.6662154 L2.80698617,31.6662154 C4.28220356,31.6662154 5.48501976,30.4595751 5.48501976,28.9863142 L5.48501976,17.3265119 C5.48306324,15.8552075 4.27837945,14.6485672 2.80502964,14.6485672 Z" id="Shape"></path>
            <path d="M6.76645257,33.4867589 C6.76645257,34.8411166 7.87331028,35.9441502 9.22766798,35.9441502 L11.8577668,35.9441502 L11.8577668,42.2421047 C11.8577668,43.7211462 13.0644071,44.9239625 14.5358004,44.9239625 L14.6508794,44.9239625 C16.1280534,44.9239625 17.3327372,43.7192787 17.3327372,42.2421047 L17.3327372,35.9441502 L21.00833,35.9441502 L21.00833,42.2421047 C21.00833,43.7211462 22.2187945,44.9239625 23.6901877,44.9239625 L23.8033992,44.9239625 C25.2804842,44.9239625 26.4833004,43.7192787 26.4833004,42.2421047 L26.4833004,35.9441502 L29.1152668,35.9441502 C30.467668,35.9441502 31.5746146,34.8411166 31.5746146,33.4867589 L31.5746146,15.076334 L6.76645257,15.076334 L6.76645257,33.4867589 Z" id="Shape"></path>
            <path d="M25.349496,3.91153162 L27.4386166,0.686828063 C27.5729051,0.483438735 27.5134091,0.20534585 27.3081522,0.0729249012 C27.1048518,-0.0613636364 26.82667,-0.0056916996 26.694249,0.203389328 L24.5284684,3.53943676 C22.903666,2.8737747 21.0889032,2.49972332 19.1724012,2.49972332 C17.2540316,2.49972332 15.4430929,2.8737747 13.8144664,3.53943676 L11.6525099,0.203389328 C11.5201779,-0.0056916996 11.2400395,-0.0613636364 11.0347826,0.0729249012 C10.8295257,0.205256917 10.7700296,0.483438735 10.9043182,0.686828063 L12.9953063,3.91153162 C9.22571146,5.75893281 6.68392292,9.24074111 6.68392292,13.2347134 C6.68392292,13.4802569 6.6993083,13.7219763 6.72038538,13.9617391 L31.6262846,13.9617391 C31.6473617,13.7219763 31.6607905,13.4802569 31.6607905,13.2347134 C31.6608794,9.24074111 29.1171344,5.75893281 25.349496,3.91153162 Z M13.3981719,9.68576087 C12.736334,9.68576087 12.1991798,9.15243083 12.1991798,8.4887253 C12.1991798,7.82501976 12.736334,7.29355731 13.3981719,7.29355731 C14.063834,7.29355731 14.597164,7.82493083 14.597164,8.4887253 C14.597164,9.15251976 14.0600099,9.68576087 13.3981719,9.68576087 Z M24.9447628,9.68576087 C24.2829249,9.68576087 23.7457708,9.15243083 23.7457708,8.4887253 C23.7457708,7.82501976 24.2829249,7.29355731 24.9447628,7.29355731 C25.6084684,7.29355731 26.1417984,7.82493083 26.1417984,8.4887253 C26.1417984,9.15243083 25.6084684,9.68576087 24.9447628,9.68576087 Z" id="Shape"></path>
            <path d="M35.6510277,14.6485672 L35.5397727,14.6485672 C34.0645553,14.6485672 32.857915,15.8552075 32.857915,17.3266008 L32.857915,28.9863142 C32.857915,30.4634881 34.0665119,31.6662154 35.5397727,31.6662154 L35.6529842,31.6662154 C37.1300692,31.6662154 38.3310178,30.4595751 38.3310178,28.9863142 L38.3310178,17.3265119 C38.3310178,15.8552075 37.1262451,14.6485672 35.6510277,14.6485672 Z" id="Shape"></path>
        </g>
    </g>
</svg>