<?xml version="1.0" encoding="UTF-8"?>
<svg width="37px" height="45px" viewBox="0 0 37 45" version="1.1" xmlns="http://www.w3.org/2000/svg" xmlns:xlink="http://www.w3.org/1999/xlink">
    <!-- Generator: Sketch 50.2 (55047) - http://www.bohemiancoding.com/sketch -->
    <title>apple</title>
    <desc>Created with Sketch.</desc>
    <defs></defs>
    <g id="Page-1" stroke="none" stroke-width="1" fill="none" fill-rule="evenodd">
        <g id="apple" fill="#FFFFFF" fill-rule="nonzero">
            <path d="M30.6516797,23.910293 C30.5949023,18.211377 35.2993359,15.4782422 35.5094824,15.3424512 C32.8661719,11.4743848 28.7484961,10.9444922 27.2811621,10.8832324 C23.776875,10.528418 20.4434473,12.946377 18.6649805,12.946377 C16.8909961,12.946377 14.1466113,10.9357031 11.240332,10.9885254 C7.42078125,11.0453027 3.89891602,13.2094336 1.9321875,16.6302246 C-2.03625,23.5164551 0.915908203,33.7179199 4.78379883,39.3027539 C6.67379883,42.0365039 8.92749023,45.106875 11.8865039,44.9971875 C14.7360059,44.883457 15.8135449,43.1533301 19.2585937,43.1533301 C22.7035547,43.1533301 23.6720215,44.9971875 26.6874609,44.9405859 C29.7537891,44.8836328 31.6964355,42.154541 33.5734277,39.4124414 C35.7437988,36.2409961 36.6374707,33.1705371 36.6902051,33.0129492 C36.6220898,32.9818359 30.710918,30.717334 30.6516797,23.910293 Z M24.9855469,7.18602539 C26.5560645,5.28064453 27.6161133,2.6371582 27.3269531,0 C25.0647363,0.092109375 22.3226367,1.50688477 20.6995605,3.40795898 C19.2432129,5.0944043 17.9683594,7.78605469 18.3099902,10.3704785 C20.8354395,10.5675293 23.4133594,9.08709961 24.9855469,7.18602539 Z" id="Shape"></path>
        </g>
    </g>
</svg>