<svg 
 xmlns="http://www.w3.org/2000/svg"
 xmlns:xlink="http://www.w3.org/1999/xlink"
 width="138px" height="53px">
<path fill-rule="evenodd"  fill="rgb(40, 32, 136)"
 d="M137.896,8.782 C137.791,9.309 137.687,9.871 137.270,10.292 C137.166,10.398 137.235,10.503 137.409,10.468 C137.444,10.468 137.479,10.503 137.479,10.538 C137.444,10.679 137.409,10.854 137.374,10.995 C137.166,11.698 137.096,12.435 136.714,13.067 C136.506,13.419 136.297,13.770 136.297,14.227 C136.297,14.297 136.262,14.367 136.228,14.402 C135.915,14.754 135.811,15.210 135.672,15.632 C135.637,15.807 135.567,15.983 135.428,16.088 C135.220,16.299 135.046,16.440 135.150,16.756 C135.150,16.826 135.116,16.932 135.046,17.002 C134.768,17.283 134.664,17.634 134.594,18.020 C134.567,18.076 134.535,18.150 134.490,18.215 C134.490,18.141 134.490,18.071 134.490,18.020 C134.281,18.161 134.281,18.196 134.455,18.266 C134.177,18.828 134.003,19.426 133.586,19.917 C133.517,19.988 133.482,20.128 133.447,20.269 C133.135,21.006 132.787,21.709 132.335,22.376 C132.266,22.482 132.196,22.587 132.092,22.692 C132.088,22.690 132.084,22.688 132.081,22.686 C131.904,23.233 131.565,23.649 131.258,24.098 C130.667,25.046 130.007,25.854 129.277,26.662 C128.095,27.926 126.705,28.594 125.002,28.559 C124.481,28.524 124.029,28.453 123.543,28.313 C122.535,27.926 121.597,27.400 120.867,26.556 C120.172,25.643 119.477,24.695 118.921,23.711 C118.052,22.166 117.774,20.550 118.087,18.793 C118.191,18.196 118.260,17.564 118.365,16.967 C118.399,16.791 118.434,16.615 118.469,16.440 C118.782,15.526 119.095,14.648 119.581,13.805 C119.720,13.594 119.824,13.349 119.929,13.103 C120.172,12.330 120.589,11.698 121.041,11.065 C121.110,10.960 121.180,10.819 121.249,10.714 C121.562,10.011 121.944,9.379 122.361,8.747 C122.535,8.466 122.778,8.185 122.987,7.904 C123.300,7.552 123.543,7.166 123.821,6.780 C123.995,6.569 124.203,6.358 124.412,6.147 C124.655,5.972 124.863,5.726 125.072,5.480 C125.837,4.602 126.636,3.759 127.644,3.161 C127.852,3.021 127.991,2.880 128.165,2.705 C128.825,2.108 129.590,1.721 130.424,1.370 C130.598,1.300 130.806,1.300 131.015,1.265 C131.154,1.229 131.327,1.265 131.466,1.335 C131.571,1.405 131.745,1.475 131.779,1.651 C131.779,1.862 131.605,1.897 131.466,1.932 C131.072,2.098 130.683,2.241 130.436,2.611 C130.825,2.508 131.213,2.380 131.571,2.248 C131.536,2.318 131.466,2.354 131.397,2.424 C131.362,2.459 131.362,2.529 131.397,2.529 C131.466,2.564 131.501,2.529 131.536,2.494 C131.605,2.424 131.571,2.318 131.571,2.248 C131.710,2.108 131.849,2.002 132.023,2.143 C132.092,2.178 132.196,2.248 132.266,2.283 C132.509,2.389 132.787,2.529 133.030,2.248 C133.169,2.108 133.378,2.143 133.552,2.213 C133.899,2.354 134.177,2.529 134.420,2.810 C134.594,2.951 134.733,3.126 134.872,3.267 C135.011,3.407 135.150,3.513 135.324,3.513 C135.637,3.478 135.880,3.618 136.089,3.829 C136.888,4.567 137.444,5.445 137.826,6.463 C137.930,6.745 138.000,7.061 138.000,7.377 C138.000,7.833 138.000,8.325 137.896,8.782 ZM128.478,27.048 C128.582,26.943 128.721,26.873 128.825,26.767 C129.312,26.311 129.764,25.889 130.146,25.362 C130.563,24.800 130.945,24.203 131.362,23.641 C131.599,23.299 131.836,22.990 132.073,22.682 C131.976,22.620 131.879,22.593 131.814,22.692 C131.640,22.868 131.466,23.079 131.293,23.290 C130.389,24.484 129.520,25.678 128.513,26.767 C128.478,26.838 128.373,26.908 128.478,27.048 ZM127.678,27.681 C127.748,27.751 127.956,27.575 127.956,27.435 C127.956,27.435 127.922,27.400 127.887,27.400 C127.783,27.435 127.713,27.470 127.644,27.575 C127.644,27.610 127.644,27.681 127.678,27.681 ZM126.983,26.943 C127.018,26.978 127.088,26.978 127.157,26.978 C127.435,26.873 127.678,26.662 127.922,26.486 C128.686,25.854 129.173,25.011 129.764,24.238 C129.798,24.203 129.798,24.168 129.798,24.098 C129.798,24.098 129.798,24.062 129.764,24.062 C129.764,24.062 129.729,24.062 129.694,24.062 C129.625,24.098 129.555,24.168 129.486,24.238 C128.825,25.011 128.095,25.749 127.296,26.416 C127.157,26.521 127.088,26.627 126.983,26.767 C126.949,26.802 126.949,26.873 126.983,26.943 ZM126.115,25.187 C126.115,25.222 126.149,25.222 126.149,25.222 C126.219,25.222 126.254,25.222 126.288,25.187 C126.879,24.835 127.366,24.343 127.783,23.817 C127.817,23.781 127.817,23.711 127.783,23.676 C127.748,23.641 127.678,23.641 127.609,23.711 C127.157,24.133 126.671,24.554 126.184,24.976 C126.149,25.011 126.115,25.081 126.080,25.151 L126.115,25.187 ZM125.454,24.941 C125.454,24.941 125.489,24.976 125.524,24.976 C125.593,24.976 125.663,24.941 125.732,24.905 C126.497,24.519 127.018,23.887 127.539,23.290 C127.574,23.254 127.574,23.184 127.574,23.149 C127.574,23.114 127.505,23.079 127.470,23.079 C127.435,23.079 127.366,23.114 127.296,23.149 C126.775,23.676 126.184,24.168 125.593,24.624 C125.524,24.695 125.489,24.765 125.420,24.835 C125.420,24.835 125.420,24.905 125.454,24.941 ZM126.949,6.112 L126.949,6.147 C126.983,6.077 127.018,6.042 127.053,6.007 C127.018,6.042 126.983,6.077 126.949,6.112 ZM126.705,12.084 C126.914,12.049 126.914,11.873 126.949,11.733 C126.740,11.908 126.601,12.084 126.705,12.084 ZM132.440,3.267 C132.405,3.267 132.301,3.337 132.196,3.372 C132.162,3.407 132.092,3.478 132.162,3.513 C132.162,3.548 132.231,3.548 132.266,3.548 C132.405,3.548 132.509,3.478 132.579,3.337 C132.613,3.337 132.613,3.302 132.613,3.302 C132.579,3.232 132.544,3.232 132.440,3.267 ZM132.857,3.794 C132.718,3.724 132.613,3.759 132.544,3.864 C132.273,4.138 131.972,4.413 131.828,4.785 C131.822,4.781 131.820,4.782 131.814,4.777 C131.605,5.023 131.362,5.199 131.154,5.445 C131.015,5.620 130.841,5.796 130.876,6.077 C130.910,6.253 130.771,6.358 130.598,6.428 C130.285,6.534 130.076,6.780 129.868,7.061 C129.590,7.412 129.347,7.763 129.069,8.114 C128.930,8.325 128.756,8.536 128.652,8.782 C128.930,8.571 129.173,8.360 129.451,8.150 C128.999,8.852 128.547,9.590 127.991,10.257 C127.991,10.187 127.991,10.082 127.991,10.011 C127.887,10.082 127.783,10.152 127.678,10.222 C127.678,10.257 127.644,10.292 127.678,10.328 C127.678,10.363 127.748,10.363 127.783,10.363 C127.852,10.328 127.922,10.292 127.991,10.257 C127.922,10.468 127.817,10.644 127.713,10.854 C127.157,11.943 126.497,12.997 126.010,14.121 C125.906,14.437 125.732,14.683 125.454,14.859 C125.246,14.964 125.037,15.140 125.350,15.421 C125.420,15.491 125.385,15.597 125.315,15.667 C125.246,15.807 125.141,15.913 125.072,16.053 C124.968,16.159 124.933,16.264 124.968,16.405 C124.863,16.826 124.759,17.283 124.620,17.704 C124.516,18.091 124.377,18.512 124.238,18.899 C124.029,19.707 123.821,20.479 123.508,21.252 C123.300,21.849 123.161,22.482 123.265,23.149 C123.369,23.922 123.612,24.098 124.273,23.746 C124.933,23.360 125.593,22.938 126.115,22.376 C126.636,21.814 127.192,21.287 127.505,20.620 C127.539,20.515 127.644,20.409 127.678,20.339 C128.200,19.601 128.791,18.934 129.103,18.091 C129.138,18.020 129.173,17.950 129.208,17.915 C129.486,17.529 129.659,17.107 129.833,16.650 C130.076,16.053 130.354,15.456 130.667,14.859 C130.876,14.473 131.084,14.121 131.154,13.700 C131.327,12.927 131.605,12.189 131.884,11.487 C131.953,11.311 132.023,11.171 132.092,10.995 C132.405,9.871 132.752,8.782 133.030,7.658 C133.239,6.920 133.308,6.182 133.447,5.410 C133.482,5.199 133.482,4.953 133.482,4.707 C133.482,4.286 133.239,3.934 132.857,3.794 ZM130.250,6.955 C130.250,6.955 130.285,6.920 130.320,6.920 C130.320,6.955 130.320,6.955 130.320,6.990 C130.285,6.990 130.285,6.990 130.250,6.990 L130.250,6.955 ZM132.474,4.250 C132.440,4.321 132.405,4.356 132.370,4.391 C132.301,4.426 132.266,4.496 132.231,4.531 C132.266,4.461 132.301,4.426 132.335,4.391 C132.405,4.356 132.440,4.286 132.474,4.250 ZM132.092,4.672 C132.127,4.602 132.162,4.567 132.231,4.531 C132.196,4.567 132.127,4.602 132.092,4.672 ZM131.845,4.794 C131.931,4.738 131.999,4.703 132.092,4.672 C132.028,4.770 131.988,4.888 131.845,4.794 ZM131.814,4.812 C131.818,4.803 131.824,4.794 131.828,4.785 C131.834,4.790 131.839,4.790 131.845,4.794 C131.834,4.801 131.826,4.805 131.814,4.812 ZM129.451,8.150 C129.486,8.044 129.520,7.939 129.590,7.869 C129.555,7.939 129.486,8.044 129.451,8.150 ZM134.490,18.301 L134.455,18.266 C134.470,18.252 134.478,18.232 134.490,18.215 C134.490,18.244 134.490,18.272 134.490,18.301 ZM115.965,26.346 C115.131,26.592 114.332,26.802 113.498,27.083 C112.177,27.505 110.822,27.856 109.536,28.313 C108.667,28.664 107.798,29.015 106.895,29.191 C106.443,29.296 105.991,29.332 105.539,29.121 C105.261,28.980 104.983,28.875 104.671,28.840 C104.358,28.805 104.149,28.524 103.941,28.313 C103.698,28.102 103.524,27.856 103.593,27.505 C103.593,27.400 103.559,27.294 103.454,27.329 C103.072,27.364 102.898,26.978 102.586,26.908 C102.377,26.603 102.193,26.310 102.108,25.973 C101.947,26.149 101.744,26.282 101.472,26.346 C100.638,26.592 99.838,26.802 99.004,27.083 C97.684,27.505 96.328,27.856 95.043,28.313 C94.174,28.664 93.305,29.015 92.401,29.191 C91.950,29.296 91.498,29.332 91.046,29.121 C90.768,28.980 90.490,28.875 90.177,28.840 C89.864,28.805 89.656,28.524 89.447,28.313 C89.204,28.102 89.030,27.856 89.100,27.505 C89.100,27.400 89.065,27.294 88.961,27.329 C88.579,27.364 88.405,26.978 88.092,26.908 C87.779,26.451 87.501,26.030 87.571,25.432 C87.606,25.151 87.675,24.870 87.745,24.589 C87.884,23.922 88.023,23.254 88.196,22.587 C88.231,22.411 88.301,22.271 88.335,22.130 C88.405,21.955 88.509,21.779 88.544,21.568 C88.683,20.901 89.030,20.304 89.343,19.671 C89.586,19.180 89.795,18.688 90.003,18.161 C90.316,17.388 90.664,16.650 90.907,15.843 C91.289,15.281 91.394,14.543 91.706,13.911 C91.845,13.559 91.984,13.208 92.193,12.892 C92.401,12.576 92.540,12.260 92.645,11.908 C92.679,11.733 92.714,11.557 92.818,11.416 C93.374,10.398 93.687,9.274 94.174,8.220 C94.487,7.552 94.904,6.920 95.286,6.253 C95.529,5.796 95.807,5.375 96.050,4.953 C96.224,4.707 96.433,4.496 96.641,4.321 C96.919,4.110 97.128,3.829 97.302,3.478 C97.510,3.021 97.823,2.635 98.136,2.213 C98.205,2.143 98.240,2.073 98.309,2.037 C98.935,1.440 99.595,1.475 100.221,2.248 C100.360,2.459 100.534,2.599 100.707,2.775 C101.194,3.197 101.402,3.688 101.194,4.321 C101.159,4.391 101.159,4.496 101.159,4.567 C101.124,4.742 101.194,4.777 101.368,4.812 C101.611,4.812 101.611,4.812 101.576,4.988 C101.507,5.269 101.472,5.550 101.368,5.761 C101.124,6.323 101.020,6.920 100.846,7.482 C100.777,7.658 100.742,7.833 100.777,8.009 C100.812,8.290 100.673,8.536 100.499,8.747 C100.325,8.993 100.151,9.309 99.978,9.590 C99.943,9.625 99.943,9.695 99.943,9.765 C100.012,9.836 100.082,9.765 100.117,9.730 C100.151,9.730 100.186,9.660 100.221,9.660 C100.325,9.695 100.290,9.765 100.290,9.836 C100.186,10.117 100.012,10.328 99.838,10.573 C99.421,11.030 99.178,11.627 98.900,12.154 C98.865,12.224 98.831,12.330 98.935,12.400 C98.970,12.400 99.074,12.330 99.109,12.295 C99.282,12.049 99.387,11.768 99.665,11.557 C99.526,11.979 99.387,12.365 99.213,12.751 C98.831,13.665 98.414,14.613 97.997,15.562 C97.962,15.702 97.858,15.807 97.788,15.948 C97.927,15.210 98.205,14.508 98.518,13.840 C98.587,13.665 98.692,13.524 98.761,13.349 C98.796,13.278 98.796,13.173 98.692,13.138 C98.657,13.138 98.553,13.173 98.518,13.208 C98.448,13.384 98.344,13.524 98.240,13.665 C97.753,14.613 97.441,15.632 96.989,16.615 C96.954,16.650 96.954,16.721 96.954,16.791 C96.885,17.142 96.746,17.458 96.572,17.775 C96.467,17.950 96.363,18.126 96.294,18.301 C95.807,19.636 95.251,20.936 94.626,22.236 C94.452,22.587 94.313,23.009 94.243,23.430 C94.209,23.465 94.243,23.536 94.313,23.571 C94.348,23.571 94.417,23.536 94.452,23.536 C94.626,23.360 94.695,23.114 94.765,22.868 C95.043,22.236 95.286,21.603 95.668,21.041 C95.668,21.358 95.564,21.639 95.425,21.920 C95.286,22.236 95.147,22.517 95.043,22.833 C94.973,22.973 94.938,23.079 94.904,23.219 C94.869,23.430 95.043,23.606 95.251,23.606 C95.390,23.606 95.494,23.606 95.633,23.571 C96.606,23.360 97.580,23.254 98.587,23.114 C98.900,23.044 99.213,23.079 99.560,23.079 C99.908,23.114 100.221,23.254 100.534,23.465 C100.812,23.711 101.159,23.887 101.472,24.098 C101.576,24.168 101.715,24.273 101.819,24.379 C101.993,24.519 102.028,24.660 101.924,24.835 C101.924,24.870 101.889,24.870 101.889,24.905 C101.819,25.081 101.541,25.187 101.715,25.397 C101.795,25.532 101.936,25.440 102.076,25.374 C102.113,25.112 102.173,24.851 102.238,24.589 C102.377,23.922 102.516,23.254 102.690,22.587 C102.725,22.411 102.794,22.271 102.829,22.130 C102.898,21.955 103.003,21.779 103.037,21.568 C103.176,20.901 103.524,20.304 103.837,19.671 C104.080,19.180 104.288,18.688 104.497,18.161 C104.810,17.388 105.157,16.650 105.400,15.843 C105.783,15.281 105.887,14.543 106.200,13.911 C106.339,13.559 106.478,13.208 106.686,12.892 C106.895,12.576 107.034,12.260 107.138,11.908 C107.173,11.733 107.208,11.557 107.312,11.416 C107.868,10.398 108.181,9.274 108.667,8.220 C108.980,7.552 109.397,6.920 109.779,6.253 C110.023,5.796 110.301,5.375 110.544,4.953 C110.718,4.707 110.926,4.496 111.135,4.321 C111.413,4.110 111.621,3.829 111.795,3.478 C112.003,3.021 112.316,2.635 112.629,2.213 C112.699,2.143 112.733,2.073 112.803,2.037 C113.428,1.440 114.089,1.475 114.714,2.248 C114.853,2.459 115.027,2.599 115.201,2.775 C115.687,3.197 115.896,3.688 115.687,4.321 C115.653,4.391 115.653,4.496 115.653,4.567 C115.618,4.742 115.687,4.777 115.861,4.812 C116.104,4.812 116.104,4.812 116.070,4.988 C116.000,5.269 115.965,5.550 115.861,5.761 C115.618,6.323 115.514,6.920 115.340,7.482 C115.270,7.658 115.236,7.833 115.270,8.009 C115.305,8.290 115.166,8.536 114.992,8.747 C114.818,8.993 114.645,9.309 114.471,9.590 C114.436,9.625 114.436,9.695 114.436,9.765 C114.506,9.836 114.575,9.765 114.610,9.730 C114.645,9.730 114.679,9.660 114.714,9.660 C114.818,9.695 114.784,9.765 114.784,9.836 C114.679,10.117 114.506,10.328 114.332,10.573 C113.915,11.030 113.672,11.627 113.394,12.154 C113.359,12.224 113.324,12.330 113.428,12.400 C113.463,12.400 113.567,12.330 113.602,12.295 C113.776,12.049 113.880,11.768 114.158,11.557 C114.019,11.979 113.880,12.365 113.706,12.751 C113.324,13.665 112.907,14.613 112.490,15.562 C112.455,15.702 112.351,15.807 112.282,15.948 C112.421,15.210 112.699,14.508 113.011,13.840 C113.081,13.665 113.185,13.524 113.255,13.349 C113.289,13.278 113.289,13.173 113.185,13.138 C113.150,13.138 113.046,13.173 113.011,13.208 C112.942,13.384 112.838,13.524 112.733,13.665 C112.247,14.613 111.934,15.632 111.482,16.615 C111.447,16.650 111.447,16.721 111.447,16.791 C111.378,17.142 111.239,17.458 111.065,17.775 C110.961,17.950 110.857,18.126 110.787,18.301 C110.301,19.636 109.745,20.936 109.119,22.236 C108.945,22.587 108.806,23.009 108.737,23.430 C108.702,23.465 108.737,23.536 108.806,23.571 C108.841,23.571 108.911,23.536 108.945,23.536 C109.119,23.360 109.189,23.114 109.258,22.868 C109.536,22.236 109.779,21.603 110.162,21.041 C110.162,21.358 110.057,21.639 109.918,21.920 C109.779,22.236 109.640,22.517 109.536,22.833 C109.467,22.973 109.432,23.079 109.397,23.219 C109.362,23.430 109.536,23.606 109.745,23.606 C109.884,23.606 109.988,23.606 110.127,23.571 C111.100,23.360 112.073,23.254 113.081,23.114 C113.394,23.044 113.706,23.079 114.054,23.079 C114.401,23.114 114.714,23.254 115.027,23.465 C115.305,23.711 115.653,23.887 115.965,24.098 C116.070,24.168 116.209,24.273 116.313,24.379 C116.487,24.519 116.521,24.660 116.417,24.835 C116.417,24.870 116.382,24.870 116.382,24.905 C116.313,25.081 116.035,25.187 116.209,25.397 C116.313,25.573 116.521,25.362 116.695,25.327 C116.730,25.327 116.834,25.327 116.869,25.362 C116.904,25.397 116.904,25.503 116.869,25.573 C116.695,25.959 116.417,26.240 115.965,26.346 ZM90.142,24.027 C90.142,23.992 90.142,23.957 90.108,23.957 C90.038,23.922 89.934,24.098 89.969,24.203 C89.969,24.238 89.969,24.238 90.003,24.238 C90.073,24.273 90.177,24.133 90.142,24.027 ZM90.399,23.131 C90.534,22.961 90.666,22.785 90.733,22.411 C90.475,22.673 90.456,22.903 90.399,23.131 ZM91.845,19.566 C91.880,19.496 91.950,19.390 91.984,19.320 C91.950,19.390 91.880,19.461 91.845,19.566 ZM92.471,17.915 C92.471,17.985 92.436,18.056 92.506,18.056 C92.540,18.056 92.610,18.020 92.610,17.985 C92.674,17.824 92.710,17.660 92.770,17.471 C92.606,17.575 92.504,17.711 92.471,17.915 ZM93.027,16.510 C92.968,16.659 92.961,16.808 92.939,16.956 C93.025,16.819 93.108,16.697 93.166,16.580 C93.201,16.510 93.201,16.440 93.201,16.369 C93.166,16.299 93.027,16.405 93.027,16.510 ZM104.636,24.027 C104.636,23.992 104.636,23.957 104.601,23.957 C104.532,23.922 104.427,24.098 104.462,24.203 C104.462,24.238 104.462,24.238 104.497,24.238 C104.566,24.273 104.671,24.133 104.636,24.027 ZM104.893,23.131 C105.027,22.961 105.159,22.785 105.227,22.411 C104.968,22.673 104.950,22.903 104.893,23.131 ZM106.339,19.566 C106.374,19.496 106.443,19.390 106.478,19.320 C106.443,19.390 106.374,19.461 106.339,19.566 ZM106.964,17.915 C106.964,17.985 106.930,18.056 106.999,18.056 C107.034,18.056 107.103,18.020 107.103,17.985 C107.167,17.824 107.204,17.660 107.263,17.471 C107.100,17.575 106.998,17.711 106.964,17.915 ZM107.520,16.510 C107.462,16.659 107.455,16.808 107.432,16.956 C107.518,16.819 107.601,16.697 107.659,16.580 C107.694,16.510 107.694,16.440 107.694,16.369 C107.659,16.299 107.520,16.405 107.520,16.510 ZM97.267,17.283 C97.232,16.756 97.441,16.334 97.788,15.948 C97.649,16.405 97.580,16.896 97.267,17.283 ZM96.954,18.442 C96.676,18.934 96.467,19.461 96.259,20.023 C96.155,20.409 96.016,20.796 95.668,21.041 C96.050,19.742 96.537,18.442 97.267,17.283 C97.232,17.704 97.128,18.056 96.954,18.442 ZM111.760,17.283 C111.725,16.756 111.934,16.334 112.282,15.948 C112.143,16.405 112.073,16.896 111.760,17.283 ZM111.447,18.442 C111.169,18.934 110.961,19.461 110.752,20.023 C110.648,20.409 110.509,20.796 110.162,21.041 C110.544,19.742 111.030,18.442 111.760,17.283 C111.725,17.704 111.621,18.056 111.447,18.442 ZM91.044,5.796 C91.079,6.182 90.975,6.323 90.627,6.288 C90.280,6.253 89.898,6.218 89.585,6.147 C88.334,5.901 87.083,5.866 85.832,5.901 C85.345,5.901 84.858,5.937 84.372,5.972 C84.233,5.972 84.094,6.007 83.990,6.042 C83.920,6.077 83.851,6.112 83.851,6.182 C83.816,6.288 83.955,6.323 84.024,6.323 C84.233,6.323 84.441,6.323 84.685,6.323 C85.623,6.323 86.561,6.323 87.534,6.358 C88.195,6.358 88.820,6.393 89.481,6.463 C89.898,6.499 90.315,6.604 90.697,6.745 C90.766,6.780 90.836,6.815 90.836,6.885 C90.871,6.955 90.801,6.990 90.766,7.026 C90.419,7.236 90.037,7.377 89.620,7.307 C88.438,7.166 87.256,7.166 86.075,7.131 C86.110,6.990 86.249,7.026 86.318,7.026 C86.631,7.026 86.944,7.026 87.256,7.061 C87.569,7.061 87.917,7.131 88.229,7.061 C88.264,7.026 88.299,6.990 88.299,6.955 C88.299,6.920 88.264,6.885 88.229,6.885 C88.195,6.850 88.160,6.850 88.125,6.850 C86.909,6.780 85.727,6.709 84.546,6.850 C84.407,6.850 84.233,6.885 84.094,6.920 C84.059,6.920 84.059,6.990 84.024,7.026 C84.059,7.061 84.094,7.096 84.129,7.096 C84.302,7.096 84.476,7.096 84.650,7.096 C84.824,7.096 84.997,7.096 85.171,7.131 C84.928,7.271 84.650,7.307 84.372,7.307 C83.816,7.307 83.503,7.552 83.329,8.079 C83.017,9.098 82.669,10.152 82.391,11.206 C82.391,11.276 82.356,11.346 82.356,11.416 C82.322,11.627 82.461,11.803 82.704,11.803 C83.260,11.768 83.816,11.873 84.407,11.908 C84.719,11.943 84.997,11.979 85.310,12.049 C85.762,12.119 86.144,12.400 86.457,12.681 C86.596,12.786 86.700,12.927 86.770,13.103 C86.909,13.524 87.152,13.840 87.465,14.156 C87.534,14.227 87.569,14.297 87.639,14.367 C87.812,14.613 87.917,14.859 87.812,15.175 C87.778,15.281 87.778,15.386 87.743,15.491 C87.708,15.632 87.743,15.772 87.847,15.843 C87.951,15.913 88.056,15.983 88.021,16.124 C87.986,16.229 87.882,16.299 87.812,16.369 C87.604,16.510 87.395,16.545 87.187,16.510 C87.013,16.475 86.839,16.440 86.666,16.405 C86.110,16.299 85.519,16.264 84.963,16.369 C84.511,16.475 84.059,16.545 83.573,16.545 C83.329,16.545 83.051,16.615 82.808,16.650 C82.252,16.791 81.661,16.861 81.105,16.826 C80.584,16.756 80.236,16.932 80.028,17.423 C79.993,17.494 79.958,17.564 79.889,17.634 C79.854,17.634 79.854,17.494 79.785,17.599 C79.819,17.599 79.854,17.634 79.889,17.634 C79.854,17.880 79.819,18.126 79.611,18.301 C79.611,18.231 79.611,18.161 79.576,18.126 C79.541,18.056 79.437,18.091 79.402,18.161 C79.333,18.301 79.229,18.442 79.159,18.618 C78.916,19.285 78.707,19.952 78.464,20.620 C78.290,21.041 78.082,21.498 77.908,21.920 C77.665,22.376 77.630,22.938 77.491,23.430 C77.456,23.536 77.560,23.571 77.665,23.536 C77.734,23.500 77.804,23.500 77.838,23.536 C77.977,23.817 78.186,23.781 78.394,23.711 C78.881,23.606 79.333,23.536 79.819,23.395 C80.445,23.184 81.105,23.149 81.765,23.114 C82.182,23.114 82.565,23.184 82.947,23.325 C83.295,23.430 83.573,23.606 83.746,23.957 C83.885,24.168 84.059,24.308 84.302,24.414 C84.893,24.624 85.241,25.046 85.415,25.643 C85.484,25.889 85.623,26.135 85.762,26.346 C85.936,26.521 85.866,26.767 85.658,26.908 C85.484,27.048 85.241,27.083 85.032,27.083 C84.233,27.083 83.468,27.294 82.704,27.540 C82.426,27.645 82.148,27.716 81.870,27.786 C81.731,27.856 81.557,27.891 81.383,27.962 C81.175,28.067 81.001,28.137 80.758,28.172 C80.619,28.172 80.480,28.207 80.375,28.278 C80.028,28.559 79.611,28.664 79.194,28.805 C78.916,28.910 78.638,29.015 78.394,29.121 C78.082,29.226 77.804,29.332 77.491,29.402 C77.248,29.437 77.004,29.507 76.726,29.613 C76.275,29.788 75.788,29.823 75.301,29.718 C74.780,29.613 74.294,29.472 73.807,29.261 C73.251,29.015 72.869,28.664 72.591,28.207 C72.347,27.786 72.104,27.400 71.757,27.083 C71.444,26.767 71.270,26.346 71.131,25.924 C71.062,25.643 71.062,25.397 71.096,25.116 C71.270,24.414 71.409,23.711 71.722,23.079 C71.965,22.552 72.174,22.025 72.382,21.498 C72.730,20.444 73.286,19.496 73.738,18.512 C74.294,17.283 74.850,16.053 75.301,14.789 C75.406,14.508 75.510,14.297 75.649,14.051 C75.892,13.700 76.031,13.313 76.240,12.927 C76.553,12.260 76.865,11.557 77.317,10.960 C77.560,10.573 77.769,10.187 77.943,9.765 C78.255,9.168 78.533,8.536 78.916,7.939 C79.020,7.728 79.159,7.517 79.194,7.271 C79.229,7.026 79.333,6.815 79.507,6.639 C79.646,6.499 79.576,6.358 79.402,6.323 C79.298,6.288 79.229,6.288 79.124,6.253 C78.811,6.182 78.707,5.972 78.672,5.691 C78.638,5.410 78.777,5.164 79.055,5.023 C79.159,4.988 79.298,4.953 79.437,4.953 C79.715,4.918 80.028,4.883 80.341,4.848 C80.480,4.848 80.653,4.848 80.792,4.742 C80.827,4.742 80.862,4.672 80.862,4.637 C80.862,4.602 80.792,4.567 80.758,4.567 C80.549,4.496 80.341,4.531 80.132,4.567 C79.785,4.602 79.472,4.637 79.124,4.637 C79.090,4.637 79.020,4.602 79.020,4.567 C79.020,4.496 79.090,4.461 79.124,4.461 C79.229,4.426 79.298,4.426 79.402,4.426 C79.785,4.391 80.202,4.356 80.584,4.321 C80.723,4.321 80.897,4.286 81.036,4.286 C81.140,4.250 81.209,4.215 81.244,4.110 C81.279,4.040 81.209,3.969 81.001,3.969 C80.619,3.969 80.236,4.005 79.819,4.005 C79.611,4.005 79.402,4.040 79.159,4.040 C78.916,4.040 78.777,3.899 78.811,3.618 C78.811,3.267 79.194,2.845 79.611,2.740 C79.785,2.705 79.993,2.705 80.202,2.705 C80.653,2.670 81.105,2.670 81.592,2.599 C81.696,2.599 81.800,2.564 81.904,2.564 C83.086,2.599 84.268,2.599 85.449,2.564 C85.797,2.564 86.110,2.599 86.457,2.564 C87.500,2.529 88.507,2.740 89.515,2.951 C90.141,3.091 90.454,3.548 90.697,4.040 C90.766,4.180 90.627,4.321 90.488,4.321 C90.280,4.286 90.037,4.286 89.828,4.215 C88.716,3.899 87.534,3.794 86.388,3.829 C85.484,3.829 84.580,3.829 83.677,3.829 C83.329,3.864 83.121,3.934 83.190,4.040 C83.295,4.250 83.503,4.180 83.642,4.180 C84.963,4.180 86.283,4.180 87.604,4.180 C88.334,4.215 89.064,4.286 89.793,4.391 C90.037,4.426 90.245,4.531 90.488,4.602 C90.558,4.637 90.627,4.672 90.558,4.742 C90.488,4.848 90.454,4.953 90.593,5.023 C90.905,5.199 90.975,5.480 91.044,5.796 ZM89.168,7.026 L89.168,6.990 L89.133,7.026 L89.168,7.026 ZM82.773,8.360 L82.808,8.360 L82.843,8.325 L82.773,8.360 ZM88.716,4.496 C88.507,4.461 88.299,4.391 88.090,4.391 C86.666,4.321 85.275,4.356 83.885,4.391 C83.816,4.391 83.746,4.391 83.677,4.426 C83.642,4.426 83.607,4.461 83.607,4.496 C83.573,4.567 83.642,4.637 83.712,4.637 C83.885,4.637 84.059,4.672 84.233,4.637 C84.928,4.637 85.588,4.602 86.283,4.567 C86.770,4.602 87.291,4.637 87.778,4.672 C88.090,4.672 88.403,4.672 88.716,4.672 C88.751,4.672 88.786,4.637 88.786,4.602 C88.786,4.567 88.751,4.496 88.716,4.496 ZM79.582,18.410 C79.589,18.374 79.605,18.338 79.611,18.301 L79.646,18.301 C79.619,18.335 79.607,18.376 79.582,18.410 ZM78.777,20.479 C78.811,20.093 78.950,19.847 79.090,19.636 C79.090,19.847 79.055,20.058 78.950,20.269 C78.916,20.304 78.881,20.339 78.777,20.479 ZM79.582,18.410 C79.502,18.830 79.345,19.248 79.090,19.636 C79.153,19.187 79.318,18.774 79.582,18.410 ZM72.554,13.173 C72.206,13.875 71.859,14.578 71.303,15.210 C70.990,15.597 70.538,15.913 70.330,16.440 C70.225,16.686 69.947,16.791 69.704,16.932 C69.565,17.002 69.461,17.107 69.496,17.283 C69.183,17.564 68.870,17.845 68.522,18.091 C68.071,18.442 67.619,18.793 67.271,19.250 C67.063,19.496 66.750,19.671 66.472,19.812 C66.333,19.812 66.298,19.847 66.333,19.952 C66.159,20.093 65.986,20.234 65.812,20.339 L65.812,20.374 C65.708,20.409 65.603,20.444 65.534,20.479 C65.534,20.444 65.534,20.409 65.534,20.374 L65.534,20.339 C65.395,20.409 65.221,20.444 65.082,20.515 C64.950,20.548 64.985,20.645 65.135,20.745 C65.190,20.707 65.225,20.651 65.256,20.620 C65.221,20.690 65.186,20.725 65.151,20.760 L65.117,20.760 C64.804,21.041 64.491,21.217 64.074,21.182 C63.866,21.147 63.796,21.217 63.761,21.498 C63.761,21.674 63.553,21.814 63.657,22.025 C63.761,22.201 63.970,22.236 64.144,22.341 C65.082,22.868 66.125,23.254 67.132,23.676 C67.445,23.781 67.723,23.922 67.932,24.133 C68.140,24.379 68.418,24.519 68.696,24.660 C69.113,24.835 69.461,25.116 69.808,25.362 C70.191,25.643 70.364,26.030 70.434,26.486 C70.469,26.627 70.399,26.732 70.225,26.767 C70.017,26.802 69.982,26.908 69.982,27.083 C70.017,27.259 70.121,27.400 70.191,27.575 C70.295,27.786 70.364,27.997 70.364,28.278 C70.364,28.559 70.191,28.734 69.913,28.664 C69.774,28.664 69.635,28.594 69.461,28.559 C69.357,28.524 69.218,28.383 69.148,28.524 C69.079,28.629 69.287,28.734 69.357,28.840 C69.426,28.875 69.461,28.910 69.530,28.945 C69.669,29.051 69.913,29.121 69.878,29.296 C69.843,29.542 69.565,29.437 69.391,29.472 C69.079,29.507 68.801,29.437 68.557,29.261 C68.071,28.945 67.515,28.805 67.098,28.383 C67.028,28.313 66.924,28.348 66.854,28.383 C66.715,28.348 66.576,28.313 66.507,28.207 C66.229,27.821 65.847,27.751 65.430,27.645 C64.352,27.400 63.344,27.013 62.371,26.486 C62.406,26.486 62.441,26.486 62.476,26.451 C62.510,26.416 62.510,26.346 62.476,26.346 C62.476,26.311 62.406,26.275 62.371,26.311 C62.371,26.311 62.337,26.346 62.337,26.381 C62.337,26.416 62.337,26.486 62.371,26.521 C62.163,26.451 61.954,26.416 61.746,26.346 C61.676,26.311 61.572,26.275 61.572,26.240 C61.607,25.819 61.224,25.819 61.016,25.749 C60.599,25.573 60.182,25.468 59.765,25.327 C59.522,25.257 59.244,25.116 59.000,25.292 C58.896,25.362 58.792,25.327 58.687,25.292 C58.270,25.081 57.819,24.941 57.471,24.624 C57.263,24.695 57.124,24.800 57.019,25.011 C56.880,25.292 56.707,25.608 56.637,25.924 C56.429,26.767 56.220,27.610 55.768,28.348 C55.733,28.383 55.768,28.418 55.768,28.453 C55.803,28.489 55.872,28.489 55.907,28.453 C55.977,28.383 56.081,28.313 56.151,28.243 C56.081,28.489 55.942,28.734 55.733,28.945 C55.629,29.086 55.490,29.226 55.247,29.121 C55.073,29.051 54.934,29.226 54.760,29.261 C54.482,29.332 54.239,29.367 54.065,29.086 C53.961,28.910 53.787,28.875 53.614,28.910 C53.336,28.945 53.197,28.805 53.058,28.629 C52.814,28.348 52.640,28.032 52.640,27.681 C52.606,27.470 52.571,27.329 52.362,27.259 C51.945,27.048 51.772,26.627 51.702,26.170 C51.667,25.854 51.667,25.573 51.737,25.257 C51.980,24.062 52.362,22.903 52.919,21.779 C53.231,21.112 53.475,20.409 53.857,19.742 C53.892,19.671 53.926,19.566 53.926,19.496 C54.135,18.407 54.656,17.423 55.073,16.440 C55.351,15.702 55.594,14.929 55.907,14.192 C56.185,13.594 56.463,13.032 56.741,12.435 C57.332,11.030 58.131,9.765 58.826,8.431 C58.965,8.150 59.174,7.869 59.348,7.588 C59.417,7.517 59.487,7.412 59.556,7.307 C59.661,7.131 59.591,6.990 59.383,6.885 C59.313,6.850 59.244,6.850 59.139,6.815 C59.278,6.745 59.383,6.745 59.487,6.709 C59.522,6.674 59.556,6.639 59.556,6.604 C59.556,6.569 59.522,6.534 59.487,6.534 C59.417,6.499 59.348,6.499 59.278,6.499 C58.027,6.569 56.776,6.745 55.560,6.920 C55.247,6.955 54.969,6.990 54.691,7.026 C54.587,7.026 54.482,7.026 54.378,7.026 C54.309,6.990 54.239,6.955 54.239,6.885 C54.239,6.850 54.274,6.780 54.309,6.780 C54.413,6.745 54.517,6.709 54.621,6.709 C55.525,6.639 56.394,6.463 57.263,6.358 C58.097,6.253 58.965,6.147 59.800,6.112 C60.043,6.112 60.251,6.112 60.460,6.007 C60.529,5.972 60.564,5.901 60.529,5.831 C60.529,5.796 60.460,5.761 60.425,5.761 C60.356,5.726 60.251,5.726 60.182,5.726 C58.444,5.796 56.707,5.972 55.004,6.393 C54.726,6.463 54.448,6.499 54.170,6.463 C53.787,6.428 53.544,6.147 53.787,5.761 C53.822,5.726 53.822,5.691 53.857,5.656 C53.961,5.550 53.961,5.445 53.857,5.304 C53.799,5.217 53.815,5.138 53.801,5.056 C53.089,5.073 52.377,5.146 51.665,5.199 C51.248,5.234 50.831,5.339 50.414,5.410 C49.928,5.480 49.476,5.515 48.989,5.585 C48.538,5.656 48.468,5.761 48.433,6.182 C48.364,6.850 48.190,7.517 47.877,8.114 C47.877,8.150 47.843,8.220 47.808,8.290 C47.773,8.360 47.738,8.466 47.843,8.536 C47.912,8.571 47.947,8.536 48.016,8.501 C48.086,8.466 48.121,8.431 48.190,8.396 C48.260,8.360 48.364,8.466 48.364,8.536 C48.364,8.571 48.364,8.606 48.329,8.606 C48.121,8.958 48.051,9.344 47.982,9.730 C47.877,10.117 47.738,10.503 47.530,10.819 C47.495,10.854 47.460,10.925 47.460,10.960 C47.529,11.518 47.153,11.903 46.875,12.322 C46.962,12.586 46.865,12.759 46.730,12.962 C46.557,13.384 46.348,13.735 46.070,14.086 C45.896,14.332 45.723,14.578 45.688,14.859 C45.714,14.859 45.751,14.859 45.792,14.859 C45.653,15.632 45.271,16.299 44.889,16.967 C44.541,16.932 44.402,17.213 44.228,17.458 C44.194,17.529 44.159,17.634 44.263,17.669 C44.298,17.704 44.367,17.669 44.402,17.599 C44.576,17.388 44.750,17.177 44.889,16.967 C44.819,17.353 44.680,17.704 44.472,18.020 C44.263,18.372 44.089,18.758 43.950,19.145 C43.533,20.269 43.047,21.322 42.560,22.376 C42.352,22.798 42.213,23.254 42.039,23.676 C41.587,24.870 41.135,26.030 40.649,27.224 C40.614,27.329 40.579,27.505 40.405,27.400 L40.405,27.435 C40.266,27.540 40.162,27.716 40.232,27.891 C40.301,28.172 40.266,28.418 40.162,28.664 C40.023,28.980 40.023,29.332 39.954,29.648 C39.884,29.964 39.815,30.034 39.502,29.999 C39.259,29.964 39.050,30.069 38.807,30.140 C38.598,30.210 38.529,30.175 38.425,29.929 C38.320,29.648 38.286,29.613 38.008,29.648 C37.903,29.683 37.834,29.683 37.764,29.718 C37.556,29.753 37.417,29.683 37.278,29.542 C37.104,29.367 36.965,29.156 36.895,28.910 C36.791,28.559 36.583,28.243 36.305,27.997 C36.061,27.786 35.922,27.505 35.853,27.189 C35.783,26.767 35.749,26.346 35.853,25.924 C35.992,25.011 36.131,24.133 36.513,23.254 C36.652,22.938 36.722,22.552 36.791,22.201 C37.104,21.147 37.521,20.128 37.869,19.109 C38.042,18.618 38.216,18.126 38.355,17.634 C38.564,16.896 38.842,16.159 39.154,15.456 C39.502,14.578 39.849,13.665 40.197,12.786 C40.440,12.119 40.788,11.487 40.996,10.819 C41.135,10.468 41.344,10.152 41.518,9.836 C41.900,9.203 42.213,8.571 42.491,7.939 C42.630,7.658 42.803,7.447 42.942,7.166 C43.047,6.955 42.942,6.745 42.699,6.745 C42.456,6.745 42.213,6.780 41.969,6.815 C40.927,7.061 39.849,7.271 38.807,7.517 C38.529,7.588 38.216,7.623 37.903,7.588 C38.112,7.517 38.320,7.447 38.529,7.412 C39.884,7.096 41.240,6.745 42.630,6.499 C42.664,6.499 42.664,6.463 42.699,6.463 C43.081,6.393 43.290,6.253 43.220,6.147 C43.012,6.007 42.838,6.147 42.630,6.182 C41.031,6.463 39.398,6.885 37.799,7.271 C37.591,7.307 37.382,7.377 37.173,7.342 C37.034,7.307 36.930,7.271 36.895,7.166 C36.826,7.026 36.930,6.955 37.034,6.885 C37.069,6.850 37.104,6.850 37.139,6.815 C37.139,6.780 37.173,6.709 37.173,6.709 C37.139,6.639 37.104,6.604 37.034,6.569 C36.895,6.569 36.756,6.569 36.652,6.534 C36.374,6.499 36.235,6.393 36.235,6.112 C36.200,6.007 36.200,5.866 36.235,5.726 C36.374,5.269 36.339,4.812 36.305,4.356 C36.270,3.688 36.548,3.091 37.139,2.740 C37.591,2.459 38.042,2.178 38.564,2.037 C39.710,1.686 40.892,1.405 42.108,1.194 C42.491,1.159 42.873,1.089 43.255,0.948 C43.394,0.913 43.568,0.878 43.707,0.878 C44.124,0.913 44.541,0.843 44.958,0.738 C45.340,0.632 45.723,0.597 46.105,0.527 C47.287,0.351 48.433,0.281 49.580,0.176 C50.936,0.070 52.256,-0.035 53.612,0.000 C54.168,0.000 54.724,0.070 55.245,0.246 C55.766,0.422 56.148,0.773 56.426,1.265 C56.496,1.370 56.566,1.510 56.496,1.651 C56.392,2.037 56.635,2.354 56.774,2.705 C56.874,2.907 57.035,3.110 57.109,3.312 C57.253,3.285 57.393,3.251 57.541,3.232 C57.610,3.232 57.714,3.197 57.784,3.197 C58.340,3.232 58.896,3.091 59.417,2.951 C59.869,2.810 60.356,2.740 60.842,2.740 C61.746,2.705 62.649,2.635 63.553,2.599 C63.866,2.599 64.178,2.599 64.456,2.635 C65.360,2.740 66.264,2.845 67.132,3.056 C68.731,3.407 70.121,4.145 71.129,5.445 C71.685,6.147 72.102,6.885 72.311,7.763 C72.484,8.677 72.728,9.625 72.762,10.573 C72.797,11.276 72.797,11.979 72.693,12.646 C72.658,12.822 72.658,12.997 72.554,13.173 ZM41.448,24.624 C41.379,24.589 41.344,24.589 41.344,24.624 C41.274,24.695 41.240,24.765 41.240,24.870 C41.205,24.870 41.240,24.941 41.274,24.976 C41.309,24.941 41.344,24.941 41.379,24.905 C41.413,24.835 41.448,24.765 41.448,24.695 C41.448,24.660 41.448,24.624 41.448,24.624 ZM41.691,23.746 L41.657,23.781 C41.657,23.817 41.691,23.817 41.691,23.817 C41.726,23.817 41.726,23.781 41.726,23.781 L41.691,23.746 ZM42.734,21.393 C42.734,21.358 42.699,21.358 42.664,21.428 C42.664,21.463 42.664,21.498 42.630,21.533 C42.630,21.568 42.595,21.568 42.560,21.603 C42.560,21.639 42.525,21.639 42.525,21.674 C42.560,21.709 42.560,21.674 42.595,21.639 C42.595,21.603 42.630,21.568 42.630,21.533 C42.664,21.498 42.699,21.463 42.734,21.428 L42.734,21.393 ZM48.816,5.339 C48.885,5.375 48.955,5.375 48.989,5.375 C49.580,5.304 50.171,5.269 50.762,5.129 C51.422,5.023 52.117,4.953 52.847,4.988 C52.916,4.988 53.055,4.988 53.194,4.988 C53.399,4.988 53.590,5.000 53.785,4.981 C53.783,4.886 53.801,4.795 53.847,4.708 C52.842,4.708 51.839,4.714 50.866,4.812 C50.380,4.883 49.928,4.953 49.476,5.023 C49.233,5.058 49.024,5.094 48.781,5.164 C48.746,5.164 48.711,5.234 48.711,5.269 C48.711,5.304 48.781,5.339 48.816,5.339 ZM45.028,16.194 C45.097,16.159 45.132,16.124 45.132,16.053 C45.167,16.018 45.132,15.983 45.097,15.983 C45.028,15.983 44.993,16.053 44.993,16.124 C44.958,16.159 44.993,16.194 45.028,16.194 ZM47.460,2.705 C49.893,2.389 52.326,2.213 54.758,2.108 C54.063,1.967 53.368,1.862 52.673,1.897 C51.422,1.967 50.206,2.037 48.989,2.213 C47.877,2.354 46.765,2.529 45.653,2.670 C43.881,2.916 42.178,3.267 40.475,3.688 C40.371,3.724 40.232,3.688 40.232,3.899 C42.664,3.478 45.062,2.986 47.460,2.705 ZM43.394,19.847 C43.429,19.847 43.464,19.777 43.464,19.742 C43.498,19.707 43.464,19.671 43.429,19.671 C43.394,19.671 43.394,19.671 43.394,19.707 C43.359,19.742 43.325,19.777 43.325,19.812 C43.325,19.882 43.359,19.882 43.394,19.847 ZM37.695,4.461 C37.660,4.496 37.660,4.531 37.625,4.531 C37.660,4.531 37.695,4.567 37.730,4.531 C37.764,4.496 37.834,4.461 37.869,4.426 C37.834,4.461 37.764,4.461 37.695,4.461 ZM38.390,6.147 C38.216,6.218 38.042,6.253 37.938,6.428 C37.903,6.428 37.938,6.499 37.938,6.534 L37.973,6.569 C38.042,6.569 38.112,6.569 38.181,6.569 C39.988,6.042 41.830,5.691 43.637,5.339 C43.811,5.304 43.950,5.234 44.089,5.164 C44.124,5.129 44.159,5.058 44.159,5.023 C44.159,4.918 44.124,4.883 44.055,4.883 C43.916,4.883 43.777,4.883 43.637,4.918 C42.664,5.129 41.657,5.304 40.684,5.550 C39.919,5.726 39.154,5.937 38.390,6.147 ZM54.619,1.440 C54.480,1.405 54.341,1.405 54.168,1.370 C53.751,1.335 53.299,1.335 52.847,1.300 C52.187,1.300 51.526,1.405 50.901,1.440 C49.302,1.510 47.738,1.756 46.174,1.967 C44.993,2.143 43.811,2.354 42.664,2.529 C41.622,2.740 40.614,2.951 39.641,3.232 C39.537,3.267 39.398,3.267 39.432,3.443 C39.432,3.478 39.606,3.478 39.676,3.478 C39.988,3.407 40.301,3.337 40.649,3.267 C41.587,3.091 42.525,2.880 43.498,2.740 C45.653,2.354 47.843,2.037 50.032,1.897 C51.457,1.792 52.882,1.651 54.307,1.686 C54.411,1.721 54.480,1.721 54.585,1.686 C54.654,1.686 54.793,1.686 54.793,1.581 C54.793,1.510 54.689,1.475 54.619,1.440 ZM53.403,3.653 C51.700,3.724 49.997,3.899 48.329,4.110 C48.225,4.145 48.121,4.145 48.016,4.180 C47.877,4.215 47.704,4.250 47.738,4.391 C47.773,4.567 47.947,4.567 48.051,4.567 C48.294,4.637 48.538,4.567 48.781,4.531 C50.519,4.286 52.221,4.145 53.959,4.145 C54.160,4.168 54.345,4.158 54.527,4.141 C54.711,4.068 54.895,3.996 55.080,3.925 C54.533,3.688 53.985,3.619 53.403,3.653 ZM67.063,25.011 C66.194,24.589 65.290,24.203 64.422,23.817 C63.692,23.500 62.962,23.184 62.232,22.903 C62.128,22.868 62.024,22.833 61.919,22.833 C61.885,22.833 61.815,22.868 61.815,22.903 C61.780,22.938 61.815,23.009 61.850,23.009 C62.024,23.114 62.232,23.219 62.406,23.290 C63.796,23.887 65.186,24.484 66.542,25.046 C66.820,25.187 67.098,25.292 67.410,25.397 C67.480,25.432 67.549,25.468 67.654,25.362 C67.480,25.187 67.271,25.116 67.063,25.011 ZM61.572,23.219 C61.537,23.219 61.502,23.254 61.468,23.254 C61.468,23.290 61.468,23.360 61.502,23.360 C61.815,23.571 62.128,23.641 62.476,23.711 C62.684,23.852 62.893,23.957 63.136,23.957 C63.344,24.133 63.553,24.203 63.796,24.238 C63.622,24.062 63.379,23.992 63.136,23.957 C62.962,23.781 62.719,23.711 62.476,23.711 C62.232,23.465 61.919,23.325 61.572,23.219 ZM64.456,24.484 L64.491,24.519 C64.561,24.554 64.665,24.589 64.734,24.624 C64.665,24.589 64.561,24.554 64.491,24.484 L64.456,24.484 ZM68.453,25.854 L68.488,25.854 L68.453,25.819 C68.349,25.784 68.279,25.749 68.175,25.713 C68.244,25.749 68.349,25.784 68.453,25.854 ZM64.665,27.224 C64.352,26.978 64.074,26.908 63.831,26.908 C64.039,27.048 64.283,27.154 64.665,27.224 ZM58.826,22.236 L58.792,22.271 L58.826,22.306 L58.826,22.236 ZM58.305,23.746 C58.201,23.711 58.097,23.676 57.992,23.746 C57.958,23.746 57.958,23.817 57.958,23.852 C58.027,23.992 58.201,24.027 58.305,24.098 C59.174,24.519 60.043,24.835 60.946,25.151 C62.719,25.784 64.456,26.451 66.194,27.189 C66.576,27.364 66.959,27.575 67.341,27.716 C67.480,27.786 67.654,27.856 67.827,27.891 C67.862,27.891 67.897,27.856 67.932,27.821 C67.932,27.786 67.897,27.751 67.897,27.716 C67.758,27.645 67.654,27.575 67.549,27.505 C66.055,26.767 64.526,26.065 62.962,25.468 C62.337,25.257 61.711,24.976 61.120,24.765 C60.182,24.414 59.244,24.062 58.305,23.746 ZM57.052,4.742 C57.104,4.795 57.121,4.855 57.108,4.912 C58.110,4.798 59.126,4.688 60.147,4.602 C61.398,4.496 62.684,4.531 63.970,4.356 C63.866,4.356 63.796,4.321 63.692,4.321 C62.580,4.250 61.433,4.250 60.286,4.321 C59.201,4.355 58.116,4.556 57.031,4.729 C57.038,4.734 57.045,4.737 57.052,4.742 ZM61.155,15.948 C61.190,15.983 61.224,15.983 61.224,15.913 C61.259,15.843 61.294,15.772 61.294,15.667 C61.259,15.737 61.190,15.807 61.155,15.878 C61.155,15.878 61.120,15.913 61.155,15.948 ZM62.580,11.241 L62.615,11.276 C62.649,11.241 62.649,11.206 62.684,11.206 C62.649,11.171 62.649,11.171 62.649,11.171 C62.615,11.171 62.580,11.206 62.580,11.241 ZM62.893,5.937 C62.893,5.972 62.893,6.007 62.927,6.042 C62.997,6.077 63.066,6.077 63.101,6.112 C63.796,6.182 64.491,6.253 65.186,6.323 C65.256,6.323 65.325,6.323 65.395,6.323 L65.430,6.288 C65.430,6.253 65.430,6.182 65.395,6.182 C65.290,6.112 65.151,6.042 65.047,6.042 C64.456,5.937 63.900,5.866 63.379,5.761 C63.205,5.796 63.101,5.796 62.962,5.831 C62.927,5.831 62.893,5.901 62.893,5.937 ZM65.777,4.075 C64.839,3.899 63.900,3.759 62.962,3.759 C61.016,3.724 59.105,3.934 57.193,4.250 C57.034,4.275 56.882,4.308 56.728,4.340 C56.698,4.413 56.700,4.482 56.774,4.531 C56.782,4.543 56.793,4.547 56.802,4.558 C57.184,4.494 57.565,4.435 57.958,4.391 C59.765,4.145 61.572,4.040 63.414,4.110 C63.935,4.110 64.456,4.110 64.978,4.180 C65.360,4.250 65.708,4.250 66.125,4.286 C66.055,4.075 65.881,4.110 65.777,4.075 ZM69.669,9.203 C69.183,8.712 68.592,8.325 67.932,8.009 C67.480,7.833 67.028,7.693 66.576,7.517 C66.020,7.271 65.464,7.131 64.839,7.131 C64.734,7.131 64.561,7.131 64.561,7.061 C64.456,6.885 64.317,6.885 64.144,6.920 C63.449,7.026 63.379,7.096 63.553,7.833 C63.588,8.114 63.622,8.360 63.518,8.606 C63.379,9.063 63.275,9.520 63.101,9.941 C63.066,10.011 63.066,10.117 63.101,10.117 C63.171,10.187 63.205,10.117 63.240,10.047 C63.344,9.906 63.414,9.730 63.518,9.590 C63.553,9.520 63.622,9.449 63.727,9.449 C63.866,9.520 63.866,9.625 63.831,9.730 C63.796,9.976 63.727,10.222 63.622,10.433 C63.518,10.609 63.414,10.819 63.414,10.995 C63.379,11.311 63.136,11.522 63.136,11.768 C63.136,12.154 62.858,12.330 62.754,12.611 C62.823,12.822 62.754,12.997 62.684,13.208 C62.545,13.489 62.441,13.770 62.337,14.051 C62.163,14.402 62.058,14.824 61.607,14.964 L61.572,14.999 C61.537,15.070 61.468,15.175 61.572,15.245 C61.746,15.351 61.711,15.491 61.641,15.632 C61.433,16.053 61.224,16.440 61.016,16.826 C60.946,17.002 60.877,17.142 60.842,17.318 C60.807,17.458 60.946,17.599 61.085,17.564 C61.120,17.564 61.155,17.529 61.190,17.529 C61.885,17.177 62.615,16.896 63.205,16.369 C63.518,16.124 63.831,15.878 64.144,15.632 C64.804,15.140 65.499,14.648 66.125,14.086 C66.924,13.384 67.723,12.681 68.383,11.838 C68.766,11.346 69.183,10.890 69.565,10.398 C69.669,10.292 69.739,10.187 69.808,10.082 C70.017,9.695 70.017,9.555 69.669,9.203 ZM56.290,27.997 C56.255,28.067 56.185,28.172 56.151,28.243 C56.185,28.172 56.220,28.067 56.290,27.962 L56.290,27.997 Z"/>
<path fill-rule="evenodd"  opacity="0.4" fill="rgb(40, 32, 136)"
 d="M131.428,40.307 C130.805,40.127 130.194,40.037 129.595,40.037 C128.448,40.037 127.584,40.257 127.004,40.697 C126.424,41.138 126.134,41.705 126.134,42.400 C126.134,42.921 126.293,43.339 126.611,43.656 C126.929,43.972 127.328,44.214 127.809,44.381 C128.289,44.549 128.934,44.732 129.745,44.930 C130.705,45.166 131.481,45.398 132.074,45.628 C132.666,45.857 133.168,46.204 133.580,46.670 C133.991,47.135 134.197,47.764 134.197,48.558 C134.197,49.216 134.019,49.814 133.664,50.353 C133.308,50.893 132.763,51.321 132.027,51.637 C131.291,51.953 130.387,52.112 129.314,52.112 C128.342,52.112 127.409,51.957 126.518,51.647 C125.626,51.337 124.937,50.927 124.451,50.419 L124.993,49.358 C125.467,49.830 126.097,50.211 126.883,50.502 C127.668,50.794 128.479,50.940 129.314,50.940 C130.487,50.940 131.366,50.726 131.952,50.298 C132.538,49.870 132.831,49.315 132.831,48.632 C132.831,48.112 132.672,47.696 132.354,47.386 C132.036,47.076 131.646,46.837 131.185,46.670 C130.724,46.502 130.081,46.319 129.258,46.121 C128.273,45.873 127.487,45.634 126.901,45.404 C126.315,45.175 125.813,44.825 125.395,44.353 C124.977,43.882 124.769,43.243 124.769,42.437 C124.769,41.780 124.943,41.181 125.292,40.642 C125.641,40.102 126.178,39.671 126.901,39.348 C127.624,39.026 128.522,38.865 129.595,38.865 C130.343,38.865 131.076,38.967 131.793,39.172 C132.510,39.376 133.131,39.659 133.654,40.018 L133.187,41.116 C132.638,40.756 132.052,40.487 131.428,40.307 ZM118.689,52.000 L115.696,47.814 C115.359,47.851 115.010,47.870 114.648,47.870 L111.132,47.870 L111.132,52.000 L109.747,52.000 L109.747,38.976 L114.648,38.976 C116.319,38.976 117.629,39.373 118.577,40.167 C119.524,40.961 119.999,42.053 119.999,43.442 C119.999,44.459 119.740,45.318 119.222,46.018 C118.705,46.719 117.966,47.225 117.005,47.535 L120.204,52.000 L118.689,52.000 ZM117.585,45.842 C118.271,45.271 118.614,44.471 118.614,43.442 C118.614,42.388 118.271,41.578 117.585,41.014 C116.899,40.449 115.908,40.167 114.611,40.167 L111.132,40.167 L111.132,46.698 L114.611,46.698 C115.908,46.698 116.899,46.412 117.585,45.842 ZM94.801,38.976 L103.780,38.976 L103.780,40.167 L96.185,40.167 L96.185,44.800 L102.957,44.800 L102.957,45.972 L96.185,45.972 L96.185,50.809 L104.060,50.809 L104.060,52.000 L94.801,52.000 L94.801,38.976 ZM85.915,51.172 C84.855,51.724 83.633,52.000 82.248,52.000 L76.917,52.000 L76.917,38.976 L82.248,38.976 C83.633,38.976 84.855,39.253 85.915,39.804 C86.975,40.356 87.798,41.125 88.384,42.111 C88.970,43.097 89.264,44.223 89.264,45.488 C89.264,46.753 88.970,47.879 88.384,48.865 C87.798,49.851 86.975,50.620 85.915,51.172 ZM87.187,42.725 C86.713,41.925 86.046,41.299 85.185,40.846 C84.325,40.394 83.321,40.167 82.174,40.167 L78.301,40.167 L78.301,50.809 L82.174,50.809 C83.321,50.809 84.325,50.583 85.185,50.130 C86.046,49.678 86.713,49.051 87.187,48.251 C87.661,47.451 87.898,46.530 87.898,45.488 C87.898,44.446 87.661,43.525 87.187,42.725 ZM60.661,41.432 L60.661,52.000 L59.277,52.000 L59.277,38.976 L60.418,38.976 L68.855,49.544 L68.855,38.976 L70.220,38.976 L70.220,52.000 L69.079,52.000 L60.661,41.432 ZM51.195,38.976 L52.580,38.976 L52.580,52.000 L51.195,52.000 L51.195,38.976 ZM43.170,41.581 L38.026,50.344 L37.371,50.344 L32.227,41.637 L32.227,52.000 L30.899,52.000 L30.899,38.976 L32.040,38.976 L37.727,48.632 L43.357,38.976 L44.499,38.976 L44.499,52.000 L43.170,52.000 L43.170,41.581 ZM15.952,38.976 L24.931,38.976 L24.931,40.167 L17.336,40.167 L17.336,44.800 L24.108,44.800 L24.108,45.972 L17.336,45.972 L17.336,50.809 L25.212,50.809 L25.212,52.000 L15.952,52.000 L15.952,38.976 ZM8.937,52.000 L5.944,47.814 C5.607,47.851 5.258,47.870 4.896,47.870 L1.379,47.870 L1.379,52.000 L-0.005,52.000 L-0.005,38.976 L4.896,38.976 C6.567,38.976 7.877,39.373 8.825,40.167 C9.772,40.961 10.247,42.053 10.247,43.442 C10.247,44.459 9.988,45.318 9.470,46.018 C8.953,46.719 8.214,47.225 7.253,47.535 L10.452,52.000 L8.937,52.000 ZM7.833,45.842 C8.519,45.271 8.862,44.471 8.862,43.442 C8.862,42.388 8.519,41.578 7.833,41.014 C7.147,40.449 6.156,40.167 4.859,40.167 L1.379,40.167 L1.379,46.698 L4.859,46.698 C6.156,46.698 7.147,46.412 7.833,45.842 Z"/>
</svg>